<?xml version="1.0" standalone="no"?><!DOCTYPE svg PUBLIC "-//W3C//DTD SVG 1.1//EN" "http://www.w3.org/Graphics/SVG/1.1/DTD/svg11.dtd"><svg t="1718940083076" class="icon" viewBox="0 0 1024 1024" version="1.1" xmlns="http://www.w3.org/2000/svg" p-id="7417" xmlns:xlink="http://www.w3.org/1999/xlink" width="200" height="200"><path d="M679.424 176.64h-99.84c-27.648 0-49.664-22.016-49.664-49.664 0-27.648 22.016-49.664 49.664-49.664h148.992c27.648 0 49.664 22.016 50.176 49.152v770.048c0 27.648-22.016 49.664-49.664 49.664h-148.992c-27.648 0-49.664-22.016-49.664-49.664 0-27.648 22.016-49.664 49.664-49.664h99.328V176.64zM504.32 481.28L309.248 345.088c-16.896-11.776-39.936-7.68-51.712 9.216-4.608 6.144-6.656 13.824-6.656 21.504v272.896c0 20.48 16.896 37.376 37.376 37.376 7.68 0 15.36-2.56 21.504-6.656l194.56-136.704c16.896-11.776 20.992-34.816 9.216-51.712-2.048-4.096-5.632-7.168-9.216-9.728z" fill="#2c2c2c" p-id="7418"></path></svg>