<?xml version="1.0" standalone="no"?><!DOCTYPE svg PUBLIC "-//W3C//DTD SVG 1.1//EN" "http://www.w3.org/Graphics/SVG/1.1/DTD/svg11.dtd"><svg t="1718946859901" class="icon" viewBox="0 0 1024 1024" version="1.1" xmlns="http://www.w3.org/2000/svg" p-id="4429" xmlns:xlink="http://www.w3.org/1999/xlink" width="200" height="200"><path d="M877.614 743.251v218.749h-731.227v-218.861c0-30.205 23.399-54.673 52.254-54.673s52.254 24.468 52.254 54.729c0 0 0 0.056 0 0.056v109.346h522.264v-109.403c0-30.205 23.399-54.673 52.254-54.673s52.254 24.468 52.254 54.729c-0.056-0.056-0.056-0.056-0.056 0zM752.067 418.192c-10.181 10.688-26.718 10.688-36.955 0l-150.914-158.057v400.938c0 15.13-11.7 27.337-26.099 27.337h-52.198c-14.399 0-26.099-12.263-26.099-27.337v-400.938l-150.914 158.057c-10.181 10.688-26.718 10.688-36.955 0l-36.955-38.643c-10.181-10.688-10.181-28.012 0-38.699l258.574-270.835c10.181-10.688 26.718-10.688 36.899 0l258.517 270.835c10.181 10.688 10.181 28.012 0 38.699l-36.899 38.643z" p-id="4430"></path></svg>