<?xml version="1.0" standalone="no"?><!DOCTYPE svg PUBLIC "-//W3C//DTD SVG 1.1//EN" "http://www.w3.org/Graphics/SVG/1.1/DTD/svg11.dtd"><svg t="1718939858417" class="icon" viewBox="0 0 1024 1024" version="1.1" xmlns="http://www.w3.org/2000/svg" p-id="1163" xmlns:xlink="http://www.w3.org/1999/xlink" width="200" height="200"><path d="M567.050786 0c15.057105 0 28.514659 9.384031 33.590566 23.396096l36.128521 100.174535q19.407883 4.798652 33.48393 9.810578 15.355688 5.481127 39.924788 16.891256l84.136371-44.531494a35.829938 35.829938 0 0 1 42.590706 6.718113l74.005883 76.52251a34.976844 34.976844 0 0 1 7.080679 38.069309l-39.455587 92.496691q9.767924 18.021606 15.73958 30.924648 6.462185 13.96941 15.995508 38.901076l91.963507 39.412931a35.190117 35.190117 0 0 1 21.455308 34.486315l-6.760768 106.210173a35.403391 35.403391 0 0 1-23.545388 30.967303l-87.122199 30.967304q-3.732285 18.021606-7.891118 31.031285a469.201566 469.201566 0 0 1-15.249051 39.604878l43.76371 96.740832a34.763571 34.763571 0 0 1-8.59492 40.607262l-83.219295 74.304467a35.829938 35.829938 0 0 1-40.735227 4.905289l-85.799905-45.427243a362.564846 362.564846 0 0 1-41.460356 18.768063l-37.472144 14.033392-33.270656 92.134126a35.829938 35.829938 0 0 1-32.7588 23.396096l-97.252689 2.196716a35.829938 35.829938 0 0 1-34.251714-22.88424l-39.199658-103.757528a767.784381 767.784381 0 0 1-39.711514-14.843831 511.856254 511.856254 0 0 1-31.649779-14.993123l-97.252688 41.566993a35.829938 35.829938 0 0 1-38.645147-6.82475l-71.958458-67.501043a34.763571 34.763571 0 0 1-7.933772-40.074079l41.801594-91.110413a511.856254 511.856254 0 0 1-15.440997-32.972074 725.129693 725.129693 0 0 1-15.355688-41.503011l-91.622269-27.896166A35.318082 35.318082 0 0 1 0.020693 565.942398l3.582994-98.319056a35.403391 35.403391 0 0 1 20.047703-30.391465l96.143667-46.173699q6.654131-24.462463 11.772694-38.282582a469.201566 469.201566 0 0 1 16.080817-36.448431l-41.67363-88.039276a34.763571 34.763571 0 0 1 7.677844-40.436644l71.873149-67.863608a35.829938 35.829938 0 0 1 38.389219-7.080678l97.146051 40.138061q16.05949-10.706327 29.282443-17.616386 15.696925-8.275009 42.164159-17.701696l33.782513-94.224205A35.829938 35.829938 0 0 1 459.880883 0z m-53.95818 359.280435c-85.309376 0-154.473952 68.33281-154.473952 152.682455s69.164576 152.72511 154.495279 152.72511 154.40997-68.375465 154.40997-152.72511-69.100594-152.703782-154.40997-152.703782" p-id="1164"></path></svg>