<?xml version="1.0" standalone="no"?><!DOCTYPE svg PUBLIC "-//W3C//DTD SVG 1.1//EN" "http://www.w3.org/Graphics/SVG/1.1/DTD/svg11.dtd"><svg t="1718940065564" class="icon" viewBox="0 0 1024 1024" version="1.1" xmlns="http://www.w3.org/2000/svg" p-id="6447" xmlns:xlink="http://www.w3.org/1999/xlink" width="200" height="200"><path d="M313.856 846.848h99.328c27.648 0 49.664 22.016 49.664 49.664 0 27.648-22.016 49.664-49.664 49.664H264.192c-27.648 0-49.664-22.016-49.664-49.664V127.488v-0.512c0-27.648 22.528-49.664 50.176-49.152h148.992c27.648 0 49.664 22.016 49.664 49.664 0 27.648-22.016 49.664-49.664 49.664H313.856v669.696zM793.088 481.28l-195.072-136.704c-16.896-11.776-39.936-7.68-51.712 9.216-4.608 6.144-6.656 13.824-6.656 21.504v272.896c0 20.48 16.896 37.376 37.376 37.376 7.68 0 15.36-2.56 21.504-6.656l195.072-136.704c16.896-11.776 20.992-34.816 9.216-51.712-2.56-3.584-6.144-6.656-9.728-9.216z" p-id="6448"></path></svg>