<?xml version="1.0" encoding="UTF-8" standalone="no"?>
<svg
   t="1720368499209"
   class="icon"
   viewBox="0 0 1024 1024"
   version="1.1"
   p-id="19032"
   width="48"
   height="48"
   id="svg1"
   sodipodi:docname="startclip.svg"
   inkscape:version="1.3.2 (091e20ef0f, 2023-11-25, custom)"
   xmlns:inkscape="http://www.inkscape.org/namespaces/inkscape"
   xmlns:sodipodi="http://sodipodi.sourceforge.net/DTD/sodipodi-0.dtd"
   xmlns="http://www.w3.org/2000/svg"
   xmlns:svg="http://www.w3.org/2000/svg">
  <defs
     id="defs1" />
  <sodipodi:namedview
     id="namedview1"
     pagecolor="#ffffff"
     bordercolor="#000000"
     borderopacity="0.25"
     inkscape:showpageshadow="2"
     inkscape:pageopacity="0.0"
     inkscape:pagecheckerboard="0"
     inkscape:deskcolor="#d1d1d1"
     inkscape:zoom="17.75"
     inkscape:cx="23.971831"
     inkscape:cy="24"
     inkscape:window-width="1920"
     inkscape:window-height="1054"
     inkscape:window-x="0"
     inkscape:window-y="0"
     inkscape:window-maximized="1"
     inkscape:current-layer="svg1" />
  <path
     d="m 376.00226,789.3407 h 78.55159 c 21.86488,0 39.2758,17.44522 39.2758,39.35318 0,21.90795 -17.41092,39.35318 -39.2758,39.35318 H 336.72647 c -21.86489,0 -39.2758,-17.44523 -39.2758,-39.35318 v -609.36577 -0.4057 c 0,-21.90795 17.81582,-39.35318 39.6807,-38.94747 h 117.82738 c 21.86489,0 39.27581,17.44522 39.27581,39.35317 0,21.90796 -17.41092,39.35319 -39.27581,39.35319 H 376.00226 Z M 754.99345,499.66882 600.7246,391.34615 c -13.36188,-9.33117 -31.58261,-6.08555 -40.89543,7.30265 -3.64414,4.86843 -5.26375,10.95398 -5.26375,17.03952 v 216.23965 c 0,16.22812 13.36187,29.61631 29.55807,29.61631 6.07357,0 12.14715,-2.02851 17.00601,-5.27414 L 755.39835,547.94747 c 13.36187,-9.33117 16.60111,-27.5878 7.2883,-40.976 -2.02453,-2.83992 -4.85886,-5.27413 -7.6932,-7.30265 z"
     p-id="19033"
     id="path1"
     style="stroke-width:0.791609" />
</svg>
